<svg version="1.1" xmlns="http://www.w3.org/2000/svg" width="1024" height="1024" viewBox="0 0 1024 1024">
<path d="M814.080 0h-604.16c-115.702 0.578-209.342 94.218-209.92 209.865v604.215c0.578 115.702 94.218 209.342 209.865 209.92h431.671c20.642 0 37.376-16.734 37.376-37.376s-16.734-37.376-37.376-37.376v0h-431.616c-74.534-0.29-134.878-60.634-135.168-135.14v-604.188c0.29-74.534 60.634-134.878 135.14-135.168h604.188c74.534 0.29 134.878 60.634 135.168 135.14v431.644c0 20.642 16.734 37.376 37.376 37.376s37.376-16.734 37.376-37.376v0-431.616c-0.29-115.818-94.101-209.629-209.892-209.92h-0.028z"></path>,<path d="M730.624 706.56l3.072-3.072c43.601-50.694 70.149-117.146 70.149-189.799 0-0.594-0.002-1.187-0.005-1.78v0.091c-0.513-137.557-94.474-253.027-221.678-286.262l-2.066-0.458c-21.963-5.444-47.197-8.612-73.156-8.704h-0.060c-163.92 0.114-296.759 133.024-296.759 296.96 0 164.006 132.954 296.96 296.96 296.96 61.584 0 118.79-18.746 166.222-50.844l-1.047 0.668h3.584l198.656 211.456c6.684 6.036 15.585 9.729 25.349 9.729 0.088 0 0.177 0 0.265-0.001h-0.014c9.824-0.133 18.769-3.794 25.649-9.77l-0.049 0.042c7.319-6.923 11.875-16.703 11.875-27.546 0-8.982-3.125-17.233-8.348-23.727l0.057 0.073zM507.392 735.744c-122.439 0-221.695-99.257-221.695-221.696s99.257-221.696 221.696-221.696c122.439 0 221.696 99.257 221.696 221.696 0 0.18 0 0.36-0.001 0.54v-0.028c-0.291 122.219-99.436 221.184-221.695 221.184 0 0 0 0 0 0v0z"></path>
</svg>