<svg version="1.1" xmlns="http://www.w3.org/2000/svg" width="1024" height="1024" viewBox="0 0 1024 1024">
<path d="M512 0c-282.77 0-512 229.23-512 512s229.23 512 512 512c282.77 0 512-229.23 512-512v0c0-282.77-229.23-512-512-512v0zM512 947.2c-240.354 0-435.2-194.846-435.2-435.2s194.846-435.2 435.2-435.2c240.354 0 435.2 194.846 435.2 435.2v0c-0.291 240.237-194.963 434.909-435.172 435.2h-0.028z"></path>,<path d="M548.352 350.72v406.528c0.25 1.616 0.393 3.479 0.393 5.376 0 20.435-16.566 37.001-37.001 37.001-18.538 0-33.892-13.633-36.583-31.42l-0.025-0.205c-0.242-1.308-0.38-2.814-0.38-4.352s0.138-3.044 0.403-4.505l-0.023 0.153v-408.576l-144.384 144.384c-6.258 5.247-14.398 8.434-23.282 8.434-20.077 0-36.352-16.275-36.352-36.352 0-8.884 3.187-17.024 8.48-23.338l-0.046 0.057 204.8-204.8c6.577-8.091 16.504-13.239 27.636-13.312h0.012c0.194-0.004 0.423-0.006 0.653-0.006 9.821 0 18.679 4.127 24.932 10.742l0.015 0.016 204.8 204.8c6.516 6.568 10.543 15.614 10.543 25.6s-4.027 19.032-10.545 25.602l0.002-0.002c-4.333 4.974-10.11 8.589-16.675 10.194l-0.221 0.046c-2.873 0.804-6.171 1.266-9.578 1.266-10.277 0-19.572-4.206-26.258-10.99l-0.004-0.004z"></path>
</svg>