<svg version="1.1" xmlns="http://www.w3.org/2000/svg" width="1024" height="1024" viewBox="0 0 1024 1024">
<path d="M764.971 85.125v852.48c0 47.36-26.88 85.76-58.88 85.76-16.357-0.941-30.599-9.24-39.575-21.608l-0.105-0.152-384-422.4c-14.589-18.801-23.387-42.73-23.387-68.715 0-18.343 4.384-35.662 12.163-50.966l-0.295 0.641 11.52-16.64 387.84-426.24c8.963-10.227 22.051-16.65 36.64-16.65 21.844 0 40.325 14.4 46.468 34.225l0.092 0.345c7.267 14.292 11.524 31.165 11.524 49.033 0 0.312-0.001 0.623-0.004 0.935v-0.048z"></path>
</svg>