<svg version="1.1" xmlns="http://www.w3.org/2000/svg" width="1024" height="1024" viewBox="0 0 1024 1024">
<path d="M755.712 338.432c-6.568-6.516-15.614-10.543-25.6-10.543s-19.032 4.027-25.602 10.545l0.002-0.002-266.24 269.312-118.272-121.344c-6.51-6.641-15.574-10.757-25.6-10.757s-19.090 4.116-25.594 10.751l-0.006 0.006c-6.516 6.568-10.543 15.614-10.543 25.6s4.027 19.032 10.545 25.602l-0.002-0.002 140.8 147.456c2.16 2.108 4.705 3.833 7.518 5.057l0.162 0.063 4.096 3.072c4.101 1.63 8.852 2.575 13.824 2.575s9.723-0.945 14.084-2.665l-0.26 0.090 3.584-2.56 8.192-5.12s0 0 0 0v0l292.352-295.424c6.397-6.621 10.339-15.65 10.339-25.6s-3.942-18.979-10.349-25.611l0.010 0.011z"></path>,<path d="M512 71.68c243.182 0 440.32 197.138 440.32 440.32s-197.138 440.32-440.32 440.32c-243.182 0-440.32-197.138-440.32-440.32v0c0.291-243.065 197.255-440.029 440.292-440.32h0.028zM512 0c-282.77 0-512 229.23-512 512s229.23 512 512 512c282.77 0 512-229.23 512-512v0c0-282.77-229.23-512-512-512v0z"></path>
</svg>