<svg version="1.1" xmlns="http://www.w3.org/2000/svg" width="1024" height="1024" viewBox="0 0 1024 1024">
<path d="M512 0c-282.77 0-512 229.23-512 512s229.23 512 512 512c282.77 0 512-229.23 512-512v0c0-282.77-229.23-512-512-512v0zM720.384 669.696c6.552 6.552 10.604 15.603 10.604 25.6 0 19.995-16.209 36.204-36.204 36.204-9.997 0-19.048-4.052-25.6-10.604v0l-157.184-157.696-157.696 157.184c-6.552 6.552-15.603 10.604-25.6 10.604-19.995 0-36.204-16.209-36.204-36.204 0-9.997 4.052-19.048 10.604-25.6v0l157.696-157.184-157.184-157.696c-6.552-6.552-10.604-15.603-10.604-25.6 0-19.995 16.209-36.204 36.204-36.204 9.997 0 19.048 4.052 25.6 10.604v0l157.184 157.696 157.696-158.208c6.552-6.552 15.603-10.604 25.6-10.604 19.995 0 36.204 16.209 36.204 36.204 0 9.997-4.052 19.048-10.604 25.6v0l-157.696 158.208z"></path>
</svg>