<svg version="1.1" xmlns="http://www.w3.org/2000/svg" width="1024" height="1024" viewBox="0 0 1024 1024">
<path d="M1003.565 902.957l-389.12-391.168 389.12-391.168c13.155-13.079 21.298-31.189 21.298-51.2s-8.142-38.121-21.294-51.197l-0.003-0.003c-13.079-13.155-31.189-21.298-51.2-21.298s-38.121 8.142-51.197 21.294l-0.003 0.003-389.12 393.728-391.168-391.68c-13.079-13.155-31.189-21.298-51.2-21.298s-38.121 8.142-51.197 21.294l-0.003 0.003c-13.155 13.079-21.298 31.189-21.298 51.2s8.142 38.121 21.294 51.197l0.003 0.003 393.728 389.12-391.68 391.168c-13.155 13.079-21.298 31.189-21.298 51.2s8.142 38.121 21.294 51.197l0.003 0.003c13.079 13.155 31.189 21.298 51.2 21.298s38.121-8.142 51.197-21.294l0.003-0.003 389.12-391.168 391.168 391.68c13.103 13.103 31.205 21.208 51.2 21.208 39.99 0 72.408-32.418 72.408-72.408 0-19.995-8.105-38.097-21.208-51.2v0z"></path>
</svg>