<svg version="1.1" xmlns="http://www.w3.org/2000/svg" width="1024" height="1024" viewBox="0 0 1024 1024">
<path d="M870.4 71.68c45.243 0 81.92 36.677 81.92 81.92v0 716.8c0 45.243-36.677 81.92-81.92 81.92v0h-716.8c-45.243 0-81.92-36.677-81.92-81.92v0-716.8c0-45.243 36.677-81.92 81.92-81.92v0h716.8zM870.4 0h-716.8c-84.831 0-153.6 68.769-153.6 153.6v0 716.8c0 84.831 68.769 153.6 153.6 153.6v0h716.8c84.831 0 153.6-68.769 153.6-153.6v0-716.8c0-84.831-68.769-153.6-153.6-153.6v0z"></path>,<path d="M579.072 460.8h251.904c19.228 0 34.816-15.588 34.816-34.816s-15.588-34.816-34.816-34.816h-165.376l219.648-204.8c6.316-6.067 10.24-14.583 10.24-24.015 0-0.017 0-0.034 0-0.052v0.003c0.004-0.193 0.006-0.421 0.006-0.649 0-18.946-15.358-34.304-34.304-34.304-9.636 0-18.344 3.973-24.575 10.37l-0.007 0.007-222.208 210.944v-162.304c0-19.228-15.588-34.816-34.816-34.816s-34.816 15.588-34.816 34.816v239.616c-0.010 0.306-0.016 0.667-0.016 1.028 0 18.663 15.129 33.792 33.792 33.792 0.186 0 0.371-0.001 0.556-0.004h-0.028z"></path>,<path d="M162.816 896c9.428-0.109 17.926-4.006 24.060-10.236l0.004-0.004 222.72-210.432v162.304c0 19.228 15.588 34.816 34.816 34.816s34.816-15.588 34.816-34.816v0-239.616c0.010-0.306 0.016-0.667 0.016-1.028 0-18.663-15.129-33.792-33.792-33.792-0.186 0-0.371 0.001-0.556 0.004h-251.876c-19.228 0-34.816 15.588-34.816 34.816s15.588 34.816 34.816 34.816h165.376l-219.648 204.8c-5.979 6.241-9.66 14.725-9.66 24.069 0 19.024 15.259 34.485 34.205 34.811h0.031z"></path>
</svg>