<svg version="1.1" xmlns="http://www.w3.org/2000/svg" width="1024" height="1024" viewBox="0 0 1024 1024">
<path d="M713.323 146.432h-621.568c0 0-0.001 0-0.001 0-50.436 0-91.356 40.741-91.646 91.108v694.812c0 50.616 41.032 91.648 91.648 91.648v0h621.568c50.395-0.291 91.136-41.211 91.136-91.647 0-0.001 0-0.001 0-0.002v0-694.784c0-50.333-40.803-91.136-91.136-91.136v0zM731.755 932.352c0 10.18-8.252 18.432-18.432 18.432v0h-621.568c-10.18 0-18.432-8.252-18.432-18.432v0-694.784c0.285-9.957 8.425-17.92 18.425-17.92 0.002 0 0.005 0 0.007 0h621.568c0.002 0 0.005 0 0.007 0 10 0 18.14 7.963 18.424 17.894l0.001 0.026z"></path>,<path d="M859.755 0h-622.080c-18.407 2.244-32.527 17.777-32.527 36.608s14.12 34.364 32.349 36.59l0.178 0.018h622.080c9.957 0.285 17.92 8.425 17.92 18.425 0 0.002 0 0.005 0 0.007v0 694.784c2.244 18.407 17.777 32.527 36.608 32.527s34.364-14.12 36.59-32.349l0.018-0.178v-694.784c0 0 0-0.001 0-0.001 0-50.436-40.741-91.356-91.108-91.646h-0.028z"></path>,<path d="M585.323 338.432h-365.568c-2.888-0.813-6.204-1.28-9.63-1.28-20.359 0-36.864 16.505-36.864 36.864s16.505 36.864 36.864 36.864c3.426 0 6.742-0.467 9.889-1.341l-0.259 0.061h365.568c18.407-2.244 32.527-17.777 32.527-36.608s-14.12-34.364-32.349-36.59l-0.178-0.018zM585.323 521.216h-365.568c-1.302-0.163-2.809-0.256-4.337-0.256-20.359 0-36.864 16.505-36.864 36.864s16.505 36.864 36.864 36.864c1.528 0 3.035-0.093 4.515-0.274l-0.178 0.018h365.568c18.407-2.244 32.527-17.777 32.527-36.608s-14.12-34.364-32.349-36.59l-0.178-0.018zM438.891 702.464h-219.136c-1.302-0.163-2.809-0.256-4.337-0.256-20.359 0-36.864 16.505-36.864 36.864s16.505 36.864 36.864 36.864c1.528 0 3.035-0.093 4.515-0.274l-0.178 0.018h219.136c1.302 0.163 2.809 0.256 4.337 0.256 20.359 0 36.864-16.505 36.864-36.864s-16.505-36.864-36.864-36.864c-1.528 0-3.035 0.093-4.515 0.274l0.178-0.018z"></path>
</svg>