<svg version="1.1" xmlns="http://www.w3.org/2000/svg" width="1024" height="1024" viewBox="0 0 1024 1024">
<path d="M116.732 965.036c-64.355-0.289-116.447-52.381-116.736-116.708v-671.772c0-64.472 52.264-116.736 116.736-116.736v0h256c3.973-0.546 8.565-0.858 13.229-0.858 38.050 0 71.253 20.753 88.907 51.558l0.264 0.5v3.072h344.064c66.734 0 120.832 54.098 120.832 120.832v0 46.592h3.584c47.095 15.937 80.392 59.732 80.392 111.305 0 0.47-0.003 0.938-0.008 1.407l0.001-0.071v454.144c0.001 0.152 0.001 0.333 0.001 0.513 0 64.189-52.035 116.224-116.224 116.224-0.18 0-0.361 0-0.541-0.001h0.028zM116.732 135.084c-22.789 0.285-41.187 18.683-41.472 41.445v671.771c0.285 22.789 18.683 41.187 41.445 41.472h790.555c22.904 0 41.472-18.568 41.472-41.472v0-454.144c0-22.904-18.568-41.472-41.472-41.472v0h-414.72c-0.006 0-0.014 0-0.022 0-17.092 0-31.541-11.318-36.26-26.868l-0.070-0.268c-7.168-24.064-31.232-107.52-46.592-163.328-5.632-24.064-8.704-26.112-37.888-26.112h-256zM520.7 277.42h334.848v-41.472c0-0.004 0-0.009 0-0.014 0-20.282-16.155-36.791-36.299-37.361l-0.053-0.001h-320.512z"></path>,<path d="M475.644 763.308h52.224c10.745 0 19.456 8.711 19.456 19.456v52.224c0 10.745-8.711 19.456-19.456 19.456h-52.224c-10.745 0-19.456-8.711-19.456-19.456v-52.224c0-10.745 8.711-19.456 19.456-19.456z"></path>,<path d="M475.644 777.644h52.224c2.828 0 5.12 2.292 5.12 5.12v52.224c0 2.828-2.292 5.12-5.12 5.12h-52.224c-2.828 0-5.12-2.292-5.12-5.12v-52.224c0-2.828 2.292-5.12 5.12-5.12z"></path>,<path d="M464.892 706.476v-8.192c-1.235-5.497-1.943-11.811-1.943-18.289 0-15.667 4.139-30.367 11.384-43.067l-0.225 0.428c18.443-19.036 38.908-35.922 61.105-50.371l1.359-0.829c6.373-4.592 11.792-10.011 16.241-16.176l0.143-0.208c7.525-8.675 12.41-19.821 13.301-32.076l0.011-0.18c0.001-0.101 0.001-0.221 0.001-0.34 0-13.957-4.615-26.836-12.403-37.195l0.114 0.159c-9.359-9.916-22.591-16.090-37.266-16.090-1.661 0-3.304 0.079-4.925 0.234l0.207-0.016c-1.324-0.131-2.862-0.205-4.417-0.205-16.451 0-30.953 8.343-39.507 21.028l-0.108 0.169c-5.893 8.43-10.191 18.426-12.214 29.223l-0.074 0.473v7.168l-70.656 6.656-15.872-7.68v-6.144c0-0.015 0-0.033 0-0.051 0-42.623 21.792-80.157 54.842-102.066l0.454-0.283c21.175-12.392 46.625-19.709 73.784-19.709 3.042 0 6.063 0.092 9.060 0.273l-0.412-0.020c2.44-0.122 5.299-0.191 8.173-0.191 37.142 0 71.584 11.564 99.92 31.289l-0.573-0.378c25.724 18.832 42.241 48.92 42.241 82.865 0 2.55-0.093 5.079-0.276 7.582l0.020-0.335c0.001 0.152 0.001 0.331 0.001 0.51 0 23.169-7.695 44.541-20.668 61.699l0.187-0.258c-12.813 14.615-27.092 27.431-42.756 38.405l-0.764 0.507-22.016 15.36c-10.26 6.66-18.216 16.099-22.893 27.253l-0.147 0.395c-1.299 4.799-2.212 10.4-2.549 16.155l-0.011 0.229-6.656 10.24h-6.656z"></path>
</svg>