<svg version="1.1" xmlns="http://www.w3.org/2000/svg" width="1024" height="1024" viewBox="0 0 1024 1024">
<path d="M512 0c-282.77 0-512 229.23-512 512s229.23 512 512 512c282.77 0 512-229.23 512-512v0c0-282.77-229.23-512-512-512v0zM515.584 246.784c10.487-10.147 24.796-16.401 40.566-16.401 0.499 0 0.996 0.006 1.491 0.019l-0.073-0.001c0.996-0.069 2.159-0.109 3.332-0.109 13.337 0 25.483 5.099 34.594 13.455l-0.038-0.034c8.575 8.61 13.877 20.486 13.877 33.6 0 0.788-0.019 1.571-0.057 2.35l0.004-0.11c0.015 0.473 0.023 1.029 0.023 1.587 0 15.489-6.489 29.463-16.896 39.351l-0.023 0.022c-10.231 10.439-24.477 16.91-40.234 16.91-0.435 0-0.87-0.005-1.303-0.015l0.064 0.001c-1.129 0.089-2.444 0.139-3.772 0.139-13.617 0-25.993-5.316-35.165-13.986l0.024 0.023c-9.147-8.279-14.869-20.195-14.869-33.448 0-0.481 0.008-0.96 0.023-1.438l-0.002 0.070c0.107-16.571 7.163-31.472 18.398-41.953l0.034-0.031zM614.4 763.392c-19.993 8.809-43.743 16.723-68.324 22.479l-2.844 0.561c-18.064 4.32-38.872 6.919-60.245 7.166l-0.171 0.002c-1.282 0.107-2.776 0.168-4.283 0.168-14.869 0-28.354-5.923-38.225-15.539l0.012 0.012c-9.319-10.713-15-24.807-15-40.227 0-1.519 0.055-3.026 0.164-4.517l-0.012 0.2c-0.194-2.756-0.304-5.973-0.304-9.216s0.11-6.46 0.328-9.647l-0.024 0.431c0-7.168 3.072-18.432 5.632-33.28l41.472-204.8-62.976-12.288v-26.624l132.608-28.672h33.792l-51.2 260.096c0 7.68 0 14.336-3.072 19.456s0 9.216 0 12.288c-0.087 1.036-0.136 2.241-0.136 3.459 0 10.567 3.722 20.264 9.926 27.852l-0.062-0.079c6.595 6.684 15.754 10.824 25.88 10.824 0.802 0 1.598-0.026 2.388-0.077l-0.108 0.006c3.303 0.378 7.13 0.593 11.008 0.593s7.705-0.216 11.471-0.635l-0.463 0.042c13.198-3.677 24.090-7.518 34.66-11.972l-1.892 0.708z"></path>
</svg>