<svg version="1.1" xmlns="http://www.w3.org/2000/svg" width="1024" height="1024" viewBox="0 0 1024 1024">
<path d="M782.722 44.8c0.004 0.22 0.006 0.48 0.006 0.741 0 12.047-4.895 22.951-12.805 30.831l-0.001 0.001-420.693 435.2 420.693 435.2c8.196 8.186 13.267 19.501 13.267 32s-5.070 23.814-13.266 32v0c-8.186 8.196-19.501 13.267-32 13.267s-23.814-5.070-32-13.266v0l-452.267-467.627c-7.944-8.142-12.845-19.285-12.845-31.573s4.901-23.431 12.854-31.583l-0.009 0.009 451.413-466.773c8.186-8.196 19.501-13.267 32-13.267s23.814 5.070 32 13.266v0c8.396 7.935 13.63 19.141 13.653 31.569v0.004z"></path>
</svg>