<svg version="1.1" xmlns="http://www.w3.org/2000/svg" width="1024" height="1024" viewBox="0 0 1024 1024">
<path d="M896 71.68c31.105 0 56.32 25.215 56.32 56.32v0 768c0 31.105-25.215 56.32-56.32 56.32v0h-768c-31.105 0-56.32-25.215-56.32-56.32v0-768c0-31.105 25.215-56.32 56.32-56.32v0h768zM896 0h-768c-70.692 0-128 57.308-128 128v0 768c0 70.692 57.308 128 128 128v0h768c70.692 0 128-57.308 128-128v0-768c0-70.692-57.308-128-128-128v0z"></path>,<path d="M240.64 476.16h542.72c19.794 0 35.84 16.046 35.84 35.84s-16.046 35.84-35.84 35.84h-542.72c-19.794 0-35.84-16.046-35.84-35.84s16.046-35.84 35.84-35.84z"></path>
</svg>