<svg version="1.1" xmlns="http://www.w3.org/2000/svg" width="1024" height="1024" viewBox="0 0 1024 1024">
<path d="M512 71.68c243.182 0 440.32 197.138 440.32 440.32s-197.138 440.32-440.32 440.32c-243.182 0-440.32-197.138-440.32-440.32v0c0.291-243.065 197.255-440.029 440.292-440.32h0.028zM512 0c-282.77 0-512 229.23-512 512s229.23 512 512 512c282.77 0 512-229.23 512-512v0c0-282.77-229.23-512-512-512v0z"></path>,<path d="M242.176 512c0.001 35.628 28.884 64.51 64.512 64.51s64.512-28.883 64.512-64.512c0-35.449-28.592-64.22-63.973-64.51h-0.027c-0.305-0.005-0.665-0.008-1.026-0.008-35.346 0-64 28.654-64 64 0 0.183 0.001 0.366 0.002 0.548v-0.028z"></path>,<path d="M447.488 512c0 35.629 28.883 64.512 64.512 64.512s64.512-28.883 64.512-64.512c0-35.629-28.883-64.512-64.512-64.512v0c-0.153-0.001-0.333-0.002-0.514-0.002-35.346 0-64 28.654-64 64 0 0.181 0.001 0.361 0.002 0.542v-0.028z"></path>,<path d="M652.8 512c0.001 35.628 28.884 64.51 64.512 64.51s64.512-28.883 64.512-64.512c0-35.629-28.883-64.512-64.512-64.512-0.18 0-0.36 0.001-0.539 0.002h0.027c-35.408 0.29-64 29.061-64 64.51 0 0.001 0 0.001 0 0.002v0z"></path>
</svg>