<svg version="1.1" xmlns="http://www.w3.org/2000/svg" width="1024" height="1024" viewBox="0 0 1024 1024">
<path d="M896 0h-768c-70.692 0-128 57.308-128 128v0 768c0 70.692 57.308 128 128 128v0h768c70.692 0 128-57.308 128-128v0-768c0-70.692-57.308-128-128-128v0zM952.32 896c0 31.105-25.215 56.32-56.32 56.32v0h-768c-31.105 0-56.32-25.215-56.32-56.32v0-768c0-31.105 25.215-56.32 56.32-56.32v0h768c31.105 0 56.32 25.215 56.32 56.32v0z"></path>,<path d="M757.76 476.16h-209.92v-209.92c0-19.794-16.046-35.84-35.84-35.84s-35.84 16.046-35.84 35.84v0 209.92h-209.92c-19.794 0-35.84 16.046-35.84 35.84s16.046 35.84 35.84 35.84h209.92v209.92c0 19.794 16.046 35.84 35.84 35.84s35.84-16.046 35.84-35.84v0-209.92h209.92c19.794 0 35.84-16.046 35.84-35.84s-16.046-35.84-35.84-35.84v0z"></path>
</svg>