<svg version="1.1" xmlns="http://www.w3.org/2000/svg" width="1024" height="1024" viewBox="0 0 1024 1024">
<path d="M512 71.68c243.181 0 440.32 197.139 440.32 440.32s-197.139 440.32-440.32 440.32c-243.181 0-440.32-197.139-440.32-440.32v0c0.286-243.065 197.255-440.030 440.291-440.32h0.029zM512 0c-282.771 0-512 229.229-512 512s229.229 512 512 512c282.771 0 512-229.229 512-512v0c0-282.771-229.229-512-512-512v0z"></path>,<path d="M466.432 675.84h65.536c11.875 0 21.504 9.629 21.504 21.504v65.536c0 11.875-9.629 21.504-21.504 21.504h-65.536c-11.875 0-21.504-9.629-21.504-21.504v-65.536c0-11.875 9.629-21.504 21.504-21.504z"></path>,<path d="M635.392 276.992c-34.074-23.502-76.25-37.534-121.703-37.534-2.935 0-5.858 0.059-8.762 0.173l0.414-0.014c-2.457-0.119-5.335-0.186-8.227-0.186-34.806 0-67.327 9.783-94.962 26.75l0.792-0.452c-40.055 27.082-66.458 71.731-68.090 122.638l-0.006 0.242c0 4.608 3.072 14.336 17.408 14.336h71.168c10.24 0 12.8-9.728 13.824-14.336 2.654-14.531 8.028-27.448 15.593-38.771l-0.233 0.371c11.3-16.484 30.035-27.161 51.26-27.161 2.866 0 5.689 0.195 8.453 0.572l-0.321-0.035c2.283-0.285 4.927-0.447 7.609-0.447 19.358 0 36.741 8.461 48.654 21.883l0.059 0.067c9.602 13.193 15.362 29.722 15.362 47.593 0 0.188-0.001 0.376-0.002 0.562v-0.030c-1.176 15.951-7.366 30.264-16.982 41.574l0.086-0.102c-5.538 7.997-12.152 14.775-19.732 20.316l-0.236 0.164c-29.354 18.815-54.85 39.589-77.761 62.912l-0.063 0.064c-10.162 17.097-16.17 37.695-16.17 59.695 0 2.957 0.107 5.887 0.322 8.789l-0.024-0.388c-0.030 0.321-0.046 0.694-0.046 1.070 0 6.786 5.502 12.288 12.288 12.288 0.377 0 0.749-0.018 1.118-0.049l-0.046 0.003h70.656c6.827-0.432 12.33-5.586 13.303-12.209l0.009-0.079c0.232-7.561 1.339-14.759 3.224-21.638l-0.152 0.646c6.414-15 16.612-27.338 29.417-36.172l0.279-0.18 27.648-18.944c19.142-14.293 35.923-29.934 50.86-47.213l0.34-0.403c15.751-20.873 25.323-47.181 25.6-75.712v-0.064c0.123-2.1 0.192-4.559 0.192-7.031 0-42.341-20.478-79.906-52.069-103.316l-0.348-0.246z"></path>
</svg>