<svg version="1.1" xmlns="http://www.w3.org/2000/svg" width="1024" height="1024" viewBox="0 0 1024 1024">
<path d="M512.049 1024c-0.029 0-0.063 0-0.097 0-282.77 0-512-229.23-512-512s229.23-512 512-512c170.946 0 322.325 83.777 415.319 212.513l1.033 1.503 18.944 26.624v-120.32c0-21.208 17.192-38.4 38.4-38.4s38.4 17.192 38.4 38.4v0 195.584c0 0.001 0 0.002 0 0.003 0 21.31-17.131 38.62-38.373 38.908h-212.507c-19.487-2.312-34.456-18.736-34.456-38.656s14.969-36.344 34.272-38.638l0.184-0.018h105.472l-11.776-16.384c-79.684-111.028-208.391-182.501-353.791-182.501-239.789 0-434.176 194.387-434.176 434.176s194.387 434.176 434.176 434.176c239.789 0 434.176-194.387 434.176-434.176 0-0.28 0-0.559-0.001-0.839v0.044c0-21.208 17.192-38.4 38.4-38.4s38.4 17.192 38.4 38.4v0c0 282.77-229.23 512-512 512v0z"></path>
</svg>