<svg version="1.1" xmlns="http://www.w3.org/2000/svg" width="1024" height="1024" viewBox="0 0 1024 1024">
<path d="M475.071 987.156c-16.522-2.12-29.16-16.096-29.16-33.024s12.638-30.904 28.994-33.007l0.166-0.017h516.096c18.158 0.288 32.768 15.076 32.768 33.276 0 0.001 0 0.003 0 0.004v0c0 18.097-14.671 32.768-32.768 32.768v0zM32.703 978.452c-0.12 0.002-0.261 0.002-0.402 0.002-16.291 0-29.805-11.888-32.341-27.462l-0.025-0.189c-0.244-1.615-0.383-3.479-0.383-5.376s0.139-3.761 0.408-5.582l-0.025 0.206 43.52-262.144c2.453-15.2 9.629-28.407 19.949-38.381l0.019-0.019 585.728-582.656c12.712-12.368 30.091-19.995 49.252-19.995 0.685 0 1.368 0.010 2.048 0.029l-0.1-0.002c0.701-0.025 1.525-0.040 2.353-0.040 19.035 0 36.286 7.638 48.856 20.016l-0.009-0.009 180.224 178.176c12.667 12.534 20.511 29.921 20.511 49.14 0 0.724-0.011 1.446-0.033 2.166l0.003-0.105c0.061 1.067 0.096 2.316 0.096 3.573 0 18.661-7.68 35.529-20.051 47.615l-0.013 0.013-578.56 574.976c-10.027 9.889-22.987 16.828-37.459 19.393l-0.429 0.063-277.504 46.080zM116.671 689.172c-7.267 7.668-12.369 17.455-14.287 28.339l-0.049 0.333-34.304 185.856 3.072 7.68c1.987 2.506 5.031 4.099 8.447 4.099 0.091 0 0.181-0.001 0.271-0.003h-0.013l204.8-40.448c11.336-1.84 21.19-7.172 28.661-14.837l0.011-0.011 45.056-44.032-179.2-188.416zM225.727 577.044l177.664 187.392 321.536-317.952-182.784-191.488zM699.327 112.148c-11.43 0.019-21.759 4.718-29.178 12.281l-0.006 0.007-78.848 80.896 180.736 189.952 92.16-87.040c7.362-7.327 11.918-17.467 11.918-28.672s-4.556-21.345-11.916-28.67l-0.002-0.002-137.216-127.488c-7.105-6.965-16.846-11.264-27.591-11.264-0.020 0-0.040 0-0.060 0h0.003zM622.527 840.724c-18.441-0.288-33.28-15.305-33.28-33.788 0-0.001 0-0.003 0-0.004v0c0.288-18.158 15.076-32.768 33.276-32.768 0.001 0 0.003 0 0.004 0h368.64c18.38 0 33.28 14.9 33.28 33.28s-14.9 33.28-33.28 33.28v0zM767.935 693.268c-18.441-0.288-33.28-15.305-33.28-33.788 0-0.001 0-0.003 0-0.004v0c0.288-18.158 15.076-32.768 33.276-32.768 0.001 0 0.003 0 0.004 0h221.184c18.38 0 33.28 14.9 33.28 33.28s-14.9 33.28-33.28 33.28v0z"></path>
</svg>