<svg version="1.1" xmlns="http://www.w3.org/2000/svg" width="1024" height="1024" viewBox="0 0 1024 1024">
<path d="M241.278 979.199c-0.004-0.22-0.006-0.48-0.006-0.741 0-12.047 4.895-22.951 12.805-30.831l0.001-0.001 420.693-435.2-420.693-435.2c-8.196-8.186-13.267-19.501-13.267-32s5.070-23.814 13.266-32v0c8.411-8.049 19.84-13.003 32.427-13.003s24.016 4.955 32.444 13.020l-0.017-0.016 451.413 467.627c7.944 8.142 12.845 19.285 12.845 31.573s-4.901 23.431-12.854 31.583l0.009-0.009-450.56 466.773c-8.411 8.049-19.84 13.003-32.427 13.003s-24.016-4.955-32.444-13.020l0.017 0.016c-8.396-7.935-13.63-19.141-13.653-31.569v-0.004z"></path>
</svg>