<svg version="1.1" xmlns="http://www.w3.org/2000/svg" width="1024" height="1024" viewBox="0 0 1024 1024">
<path d="M226.199 1023.999c-0.040 0-0.087 0-0.134 0-13.438 0-25.746-4.838-35.277-12.868l0.083 0.068c-13.555-10.881-22.159-27.449-22.159-46.026 0-3.091 0.238-6.126 0.697-9.088l-0.042 0.33 54.272-295.424-205.824-200.192c-10.912-11.083-17.65-26.303-17.65-43.097 0-6.549 1.025-12.859 2.923-18.778l-0.12 0.435c6.902-21.787 25.557-37.87 48.338-40.927l0.302-0.033 281.6-54.272 128-271.36c9.238-19.432 28.661-32.651 51.184-32.768h0.016c0.012 0 0.027 0 0.041 0 22.561 0 42.024 13.266 51.014 32.423l0.145 0.345 127.488 271.36 284.672 51.2c21.985 3.842 39.45 19.767 45.468 40.555l0.1 0.405c1.585 5.101 2.498 10.966 2.498 17.043 0 15.33-5.808 29.303-15.343 39.839l0.045-0.051-204.8 204.8 51.2 293.888c0.512 2.942 0.805 6.33 0.805 9.786 0 19.025-8.869 35.978-22.697 46.951l-0.124 0.095c-9.581 7.453-21.784 11.948-35.036 11.948-10.675 0-20.669-2.917-29.228-7.998l0.265 0.146-256-133.12-260.096 137.728c-7.519 4.191-16.495 6.659-26.047 6.659-0.203 0-0.405-0.001-0.608-0.003h0.031zM221.079 956.927v0zM800.151 956.927v0zM78.231 422.911l219.136 214.528-56.832 307.2 271.872-139.264 270.336 141.312-55.296-307.2 218.624-216.064-301.568-56.32-132.096-284.16-132.096 281.6zM62.359 425.983v0zM963.991 425.983v0z"></path>
</svg>