<svg version="1.1" xmlns="http://www.w3.org/2000/svg" width="1024" height="1024" viewBox="0 0 1024 1024">
<path d="M123.932 1002.482c-0.774 0.018-1.685 0.028-2.6 0.028-67.016 0-121.344-54.328-121.344-121.344 0-1.090 0.014-2.177 0.043-3.26l-0.003 0.16v-266.24c-0.061-0.785-0.096-1.701-0.096-2.624 0-19.794 16.046-35.84 35.84-35.84 0.754 0 1.503 0.023 2.246 0.069l-0.102-0.005c0.641-0.041 1.39-0.064 2.144-0.064 19.794 0 35.84 16.046 35.84 35.84 0 0.923-0.035 1.839-0.104 2.745l0.007-0.12v266.24c-0.069 0.942-0.109 2.042-0.109 3.15 0 25.167 20.401 45.568 45.568 45.568 0.939 0 1.871-0.028 2.796-0.084l-0.127 0.006h776.192c0.798 0.050 1.73 0.078 2.669 0.078 25.167 0 45.568-20.401 45.568-45.568 0-1.108-0.040-2.208-0.117-3.296l0.008 0.146v-266.24c0-20.925 16.963-37.888 37.888-37.888s37.888 16.963 37.888 37.888v0 266.24c0.025 0.923 0.040 2.010 0.040 3.1 0 67.016-54.328 121.344-121.344 121.344-0.914 0-1.826-0.010-2.735-0.030l0.136 0.002z"></path>,<path d="M520.732 21.49c22.203 0.129 42.184 9.535 56.282 24.535l0.038 0.041 211.456 210.944c6.879 6.796 11.169 16.2 11.264 26.606v0.018c-0.211 10.403-4.473 19.772-11.267 26.627l0.003-0.003c-6.796 6.879-16.2 11.169-26.606 11.264h-0.018c-10.403-0.211-19.772-4.473-26.627-11.267l0.003 0.003-172.032-173.056v652.288c0 20.925-16.963 37.888-37.888 37.888s-37.888-16.963-37.888-37.888v0-660.48l-180.224 181.248c-6.796 6.879-16.2 11.169-26.606 11.264h-0.018c-10.259-0.119-19.492-4.411-26.102-11.253l-0.010-0.011c-7.114-6.697-11.598-16.12-11.776-26.592v-0.032c0.049-10.528 4.565-19.992 11.75-26.6l0.026-0.024 209.408-210.944c14.378-14.971 34.488-24.343 56.789-24.576h0.043z"></path>
</svg>