<svg version="1.1" xmlns="http://www.w3.org/2000/svg" width="1024" height="1024" viewBox="0 0 1024 1024">
<path d="M0 512c0 282.77 229.23 512 512 512s512-229.23 512-512c0-282.77-229.23-512-512-512v0c-282.77 0-512 229.23-512 512v0zM947.2 512c0 240.354-194.846 435.2-435.2 435.2s-435.2-194.846-435.2-435.2c0-240.354 194.846-435.2 435.2-435.2v0c240.237 0.291 434.909 194.963 435.2 435.172v0.028z"></path>,<path d="M350.72 475.648h406.528c1.616-0.25 3.479-0.393 5.376-0.393 20.435 0 37.001 16.566 37.001 37.001 0 18.538-13.633 33.892-31.42 36.583l-0.205 0.025h-417.28l144.384 144.384c5.247 6.258 8.434 14.398 8.434 23.282 0 20.077-16.275 36.352-36.352 36.352-8.884 0-17.024-3.187-23.338-8.48l0.057 0.046-204.8-204.8c-8.091-6.577-13.239-16.504-13.312-27.636v-0.012c-0.004-0.194-0.006-0.423-0.006-0.653 0-9.821 4.127-18.679 10.742-24.932l0.016-0.015 204.8-204.8c6.568-6.516 15.614-10.543 25.6-10.543s19.032 4.027 25.602 10.545l-0.002-0.002c4.974 4.333 8.589 10.11 10.194 16.675l0.046 0.221c0.804 2.873 1.266 6.171 1.266 9.578 0 10.277-4.206 19.572-10.99 26.258l-0.004 0.004z"></path>
</svg>