<svg version="1.1" xmlns="http://www.w3.org/2000/svg" width="1024" height="1024" viewBox="0 0 1024 1024">
<path d="M64.512 915.456c-35.56-0.459-64.211-29.393-64.211-65.019 0-17.755 7.116-33.848 18.652-45.582l-0.009 0.009 42.496-42.496c23.402-23.202 37.89-55.363 37.89-90.908 0-0.26-0.001-0.52-0.002-0.78l0 0.040v-209.92c0.847-160.022 103.099-295.944 245.734-346.843l2.586-0.805h3.072v-4.608c7.269-60.324 57.341-106.861 118.616-108.54l0.168-0.004c61.228 1.941 111.031 48.388 118.214 107.957l0.058 0.587v3.584h3.072c145.753 51.654 248.361 188.119 248.832 348.615l0 0.057v209.92c-0 0.094-0 0.205-0 0.316 0 35.678 14.481 67.973 37.886 91.33l0.002 0.002 42.496 42.496c11.524 11.725 18.639 27.816 18.639 45.569 0 35.804-28.938 64.85-64.702 65.023l-0.017 0zM469.504 166.4c-0.001-0-0.003-0-0.004-0-162.901 0-295.060 131.621-295.932 294.317l-0 0.083v209.92c0.001 0.25 0.002 0.545 0.002 0.841 0 55.978-22.917 106.604-59.881 143.007l-0.025 0.025-26.624 27.136h768l-27.136-27.136c-36.989-36.428-59.906-87.053-59.906-143.031 0-0.296 0.001-0.591 0.002-0.886l-0 0.046v-209.92c-0.866-162.784-133.027-294.411-295.932-294.411-0.901 0-1.802 0.004-2.702 0.012l0.138-0.001zM469.504 92.16h39.424l-12.8-10.24c-7.094-6.048-16.368-9.728-26.501-9.728-0.043 0-0.087 0-0.13 0l0.007-0c-0.148-0.002-0.323-0.003-0.498-0.003-10.013 0-19.165 3.685-26.175 9.773l0.049-0.042-12.8 10.24h16.384z"></path>,<path d="M354.816 1024c-20.359 0-36.864-16.505-36.864-36.864s16.505-36.864 36.864-36.864v-0h230.4c20.359 0 36.864 16.505 36.864 36.864s-16.505 36.864-36.864 36.864v0z"></path>
</svg>