<svg version="1.1" xmlns="http://www.w3.org/2000/svg" width="1024" height="1024" viewBox="0 0 1024 1024">
<path d="M91.136 1023.997c-0.306 0.004-0.668 0.006-1.030 0.006-49.409 0-89.531-39.766-90.106-89.039v-746.038c1.975-48.204 41.532-86.535 90.041-86.535 0.385 0 0.77 0.002 1.153 0.007l-0.058-0.001h102.4v-51.2c0-28.277 22.923-51.2 51.2-51.2s51.2 22.923 51.2 51.2v0 51.2h436.736v-51.2c0-28.277 22.923-51.2 51.2-51.2v0c13.734 0.056 26.182 5.511 35.343 14.351l-0.015-0.015c9.012 9.081 14.644 21.528 14.848 35.289v52.775h102.4c47.445 1.353 85.627 39.179 87.546 86.351l0.006 0.177v745.984c-0.575 49.328-40.697 89.094-90.106 89.094-0.362 0-0.724-0.002-1.085-0.006l0.055 0.001zM73.216 934.909c0.285 9.674 8.196 17.408 17.913 17.408 0.003 0 0.005 0 0.008 0h841.728c0.002 0 0.005 0 0.007 0 9.717 0 17.627-7.734 17.912-17.382l0.001-0.026v-596.992h-877.568zM212.48 678.909c-21.407-1.637-38.185-19.305-38.4-40.939v-129.045c0.139-11.409 4.808-21.702 12.288-29.184v0c7.466-7.284 17.683-11.777 28.95-11.777 0.082 0 0.164 0 0.247 0.001h204.787c0.099-0.001 0.215-0.001 0.332-0.001 11.398 0 21.748 4.487 29.38 11.792l-0.016-0.015c6.683 7.265 10.779 17 10.779 27.692 0 0.525-0.010 1.047-0.029 1.567l0.002-0.075v130.56c-0.287 22.684-18.743 40.963-41.469 40.963-0.181 0-0.362-0.001-0.543-0.003h0.027z"></path>
</svg>