<svg version="1.1" xmlns="http://www.w3.org/2000/svg" width="1024" height="1024" viewBox="0 0 1024 1024">
<path d="M255.91 938.875v-852.48c0-47.36 26.88-85.76 58.88-85.76 16.357 0.941 30.599 9.24 39.575 21.608l0.105 0.152 390.4 422.4c14.485 18.611 23.223 42.318 23.223 68.066 0 18.111-4.324 35.213-11.995 50.329l0.292-0.634c-3.527 6.825-7.353 12.696-11.69 18.141l0.17-0.221-394.24 426.24c-8.963 10.227-22.051 16.65-36.64 16.65-21.844 0-40.325-14.4-46.468-34.225l-0.092-0.345c-7.267-14.292-11.524-31.165-11.524-49.033 0-0.312 0.001-0.623 0.004-0.935v0.048z"></path>
</svg>