<svg version="1.1" xmlns="http://www.w3.org/2000/svg" width="1024" height="1024" viewBox="0 0 1024 1024">
<path d="M84.485 255.829h852.48c47.36 0 87.040 26.88 87.040 58.88-0.941 16.357-9.24 30.599-21.608 39.575l-0.152 0.105-423.68 390.4c-18.801 14.589-42.73 23.387-68.715 23.387-18.343 0-35.662-4.384-50.966-12.163l0.641 0.295-16.64-11.52-426.24-394.24c-10.227-8.963-16.65-22.051-16.65-36.64 0-21.844 14.4-40.325 34.225-46.468l0.345-0.092c14.292-7.267 31.165-11.524 49.033-11.524 0.312 0 0.623 0.001 0.935 0.004h-0.048z"></path>
</svg>