<svg version="1.1" xmlns="http://www.w3.org/2000/svg" width="1024" height="1024" viewBox="0 0 1024 1024">
<path d="M938.875 766.926h-852.48c-47.36 0-85.76-26.88-85.76-58.88 0.941-16.357 9.24-30.599 21.608-39.575l0.152-0.105 422.4-384c19.436-16.957 45.029-27.296 73.036-27.296 16.182 0 31.557 3.451 45.43 9.658l-0.706-0.282 17.92 11.52 426.24 394.24c10.227 8.963 16.65 22.051 16.65 36.64 0 21.844-14.4 40.325-34.225 46.468l-0.345 0.092c-14.292 7.267-31.165 11.524-49.033 11.524-0.312 0-0.623-0.001-0.935-0.004h0.048z"></path>
</svg>