<svg version="1.1" xmlns="http://www.w3.org/2000/svg" width="1024" height="1024" viewBox="0 0 1024 1024">
<path d="M512 0c-282.77 0-512 229.23-512 512s229.23 512 512 512c282.77 0 512-229.23 512-512v0c0-282.77-229.23-512-512-512v0zM756.224 390.144l-292.352 294.912s0 0 0 0l-8.192 5.12-3.584 2.56c-4.101 1.63-8.852 2.575-13.824 2.575s-9.723-0.945-14.084-2.665l0.26 0.090-4.096-3.072c-2.975-1.287-5.52-3.012-7.685-5.125l0.005 0.005h-3.072l-141.824-146.944c-6.516-6.568-10.543-15.614-10.543-25.6s4.027-19.032 10.545-25.602l-0.002 0.002c6.51-6.641 15.574-10.757 25.6-10.757s19.090 4.116 25.594 10.751l0.006 0.006 117.76 121.344 266.24-269.312c6.568-6.516 15.614-10.543 25.6-10.543s19.032 4.027 25.602 10.545l-0.002-0.002c7.18 6.743 11.653 16.297 11.653 26.895 0 9.572-3.648 18.292-9.631 24.846l0.026-0.029z"></path>
</svg>