<svg version="1.1" xmlns="http://www.w3.org/2000/svg" width="1024" height="1024" viewBox="0 0 1024 1024">
<path d="M816.805 882.886c0 35.346-28.654 64-64 64h-460.59c-35.346 0-64-28.654-64-64v0-678.82h588.59zM356.215 89.181c0-7.243 5.872-13.115 13.115-13.115v0h307.41c7.243 0 13.115 5.872 13.115 13.115v0 38.82h-333.639zM1008.805 128.001h-242.885v-38.82c0-49.253-39.927-89.18-89.18-89.18v0h-307.41c-49.253 0-89.18 39.927-89.18 89.18v38.82h-243.934c-19.413 2.334-34.315 18.705-34.315 38.557s14.902 36.224 34.129 38.539l0.185 0.018h114.885v677.77c0.297 77.816 63.299 140.818 141.086 141.115h460.618c77.816-0.297 140.818-63.299 141.115-141.086v-678.848h114.885c21.15 0 38.295-17.145 38.295-38.295v0c0-0.001 0-0.002 0-0.004 0-20.86-16.91-37.77-37.77-37.77-0.184 0-0.369 0.001-0.552 0.004h0.028zM522.51 830.952c0.157 0.002 0.343 0.004 0.528 0.004 20.86 0 37.77-16.91 37.77-37.77 0-0.186-0.001-0.371-0.004-0.556v0.028-409.705c0-21.15-17.145-38.295-38.295-38.295s-38.295 17.145-38.295 38.295v0 409.705c-0.002 0.157-0.004 0.343-0.004 0.528 0 20.86 16.91 37.77 37.77 37.77 0.186 0 0.371-0.001 0.556-0.004h-0.028zM343.1 830.952c21.15 0 38.295-17.145 38.295-38.295v0-409.705c0.167-1.352 0.262-2.918 0.262-4.505 0-21.44-17.38-38.82-38.82-38.82s-38.82 17.38-38.82 38.82c0 1.588 0.095 3.153 0.28 4.69l-0.018-0.185v409.705c0.848 20.982 17.789 37.741 38.767 38.294l0.053 0.001zM701.92 830.952c0.156 0.002 0.34 0.004 0.525 0.004 21.15 0 38.295-17.145 38.295-38.295 0-0.001 0-0.003 0-0.004v0-409.705c0.167-1.352 0.262-2.918 0.262-4.505 0-21.44-17.38-38.82-38.82-38.82s-38.82 17.38-38.82 38.82c0 1.588 0.095 3.153 0.28 4.69l-0.018-0.185v409.705c0 21.15 17.145 38.295 38.295 38.295v0z"></path>
</svg>