<svg version="1.1" xmlns="http://www.w3.org/2000/svg" width="1024" height="1024" viewBox="0 0 1024 1024">
<path d="M123.932 1002.481c-0.774 0.018-1.685 0.028-2.6 0.028-67.016 0-121.344-54.328-121.344-121.344 0-1.090 0.014-2.177 0.043-3.26l-0.003 0.16v-266.24c-0.061-0.785-0.096-1.701-0.096-2.624 0-19.794 16.046-35.84 35.84-35.84 0.754 0 1.503 0.023 2.246 0.069l-0.102-0.005c0.641-0.041 1.39-0.064 2.144-0.064 19.794 0 35.84 16.046 35.84 35.84 0 0.923-0.035 1.839-0.104 2.745l0.007-0.12v266.24c-0.069 0.942-0.109 2.042-0.109 3.15 0 25.167 20.401 45.568 45.568 45.568 0.939 0 1.871-0.028 2.796-0.084l-0.127 0.006h776.192c0.798 0.050 1.73 0.078 2.669 0.078 25.167 0 45.568-20.401 45.568-45.568 0-1.108-0.040-2.208-0.117-3.296l0.008 0.146v-266.24c0-20.925 16.963-37.888 37.888-37.888s37.888 16.963 37.888 37.888v0 266.24c0.025 0.923 0.040 2.010 0.040 3.1 0 67.016-54.328 121.344-121.344 121.344-0.914 0-1.826-0.010-2.735-0.030l0.136 0.002z"></path>,<path d="M520.732 825.841c-22.344-0.233-42.454-9.605-56.806-24.549l-0.026-0.027-210.944-210.944c-6.641-6.51-10.757-15.574-10.757-25.6s4.116-19.090 10.751-25.594l0.006-0.006c6.62-6.853 15.853-11.145 26.090-11.264h0.022c10.424 0.095 19.828 4.385 26.62 11.26l172.548 172.548v-652.288c0-20.925 16.963-37.888 37.888-37.888s37.888 16.963 37.888 37.888v658.944l181.248-181.248c6.852-6.791 16.221-11.053 26.584-11.263l0.040-0.001c10.424 0.095 19.828 4.385 26.62 11.26l0.004 0.004c6.397 6.621 10.339 15.65 10.339 25.6s-3.942 18.979-10.349 25.611l0.010-0.011-210.944 210.944c-14.094 15.733-34.211 25.823-56.693 26.62l-0.139 0.004z"></path>
</svg>