<svg version="1.1" xmlns="http://www.w3.org/2000/svg" width="1024" height="1024" viewBox="0 0 1024 1024">
<path d="M317.406 568.638l-51.2 187.904c-0.777 2.572-1.224 5.527-1.224 8.587 0 8.689 3.608 16.536 9.407 22.124l0.009 0.009c5.339 5.694 12.909 9.242 21.307 9.242 0.429 0 0.856-0.009 1.281-0.028l-0.061 0.002h10.24l188.416-51.2c2.331-0.085 4.368-1.27 5.617-3.049l0.015-0.023 501.76-498.176c13.056-14.173 21.060-33.173 21.060-54.044 0-1.161-0.025-2.316-0.074-3.464l0.006 0.164c-0.392-26.703-11.484-50.741-29.168-68.080l-0.016-0.016-47.616-47.104c-17.558-17.682-41.75-28.758-68.528-29.183l-0.080-0.001c-0.655-0.019-1.425-0.029-2.198-0.029-22.224 0-42.393 8.795-57.218 23.093l0.025-0.024-499.2 498.688zM951.774 194.878l-51.2 51.2-81.408-82.944 51.2-51.2c4.171-3.815 9.748-6.152 15.872-6.152s11.701 2.337 15.89 6.168l-0.018-0.016 47.616 47.104c4.531 4.647 7.41 10.923 7.678 17.869l0.002 0.051c0.001 0.079 0.002 0.173 0.002 0.267 0 5.137-2.162 9.77-5.625 13.037l-0.009 0.008zM409.566 573.758l361.472-358.4 80.896 81.408-358.4 358.4-83.968-81.408zM342.494 719.166l26.112-95.232 69.632 69.632-95.744 25.6zM983.518 392.51c-18.946 0-34.304 15.358-34.304 34.304v0 0 463.872c0 24.601-19.943 44.544-44.544 44.544v0h-791.040c-24.601 0-44.544-19.943-44.544-44.544v-757.248c0-24.601 19.943-44.544 44.544-44.544v0h512c18.946 0 34.304-15.358 34.304-34.304s-15.358-34.304-34.304-34.304v0h-512c-1.579-0.082-3.427-0.129-5.287-0.129-57.831 0-105.099 45.227-108.364 102.24l-0.013 0.289v773.632c0 0.001 0 0.003 0 0.005 0 59.382 48.138 107.52 107.52 107.52 0.36 0 0.72-0.002 1.079-0.005h801.225c0.304 0.003 0.664 0.005 1.024 0.005 59.382 0 107.52-48.138 107.52-107.52 0-0.002 0-0.003 0-0.005v0-469.504c-0.563-18.893-15.878-34.029-34.79-34.304h-0.026z"></path>
</svg>