<svg version="1.1" xmlns="http://www.w3.org/2000/svg" width="1024" height="1024" viewBox="0 0 1024 1024">
<path d="M512 71.68c243.182 0 440.32 197.138 440.32 440.32s-197.138 440.32-440.32 440.32c-243.182 0-440.32-197.138-440.32-440.32v0c0.291-243.065 197.255-440.029 440.292-440.32h0.028zM512 0c-282.77 0-512 229.23-512 512s229.23 512 512 512c282.77 0 512-229.23 512-512v0c0-282.77-229.23-512-512-512v0z"></path>,<path d="M512 793.088c-0.145 0.002-0.316 0.003-0.487 0.003-13.524 0-25.716-5.699-34.307-14.826l-0.022-0.024c-9.985-8.793-16.281-21.571-16.384-35.822v-0.018c-0.011-0.38-0.017-0.827-0.017-1.276 0-13.6 5.701-25.868 14.844-34.544l0.021-0.020c9.228-9.050 21.882-14.636 35.84-14.636s26.612 5.586 35.848 14.644l-0.008-0.008c9.177 9.25 14.849 21.991 14.849 36.056 0 0.104 0 0.208-0.001 0.312v-0.016c0 28.277-22.923 51.2-51.2 51.2v0z"></path>,<path d="M512 605.696c-13.987-0.061-26.64-5.72-35.843-14.851l0.003 0.003c-9.164-8.696-14.865-20.964-14.865-34.564 0-0.449 0.006-0.896 0.019-1.342l-0.001 0.066v-273.408c0-28.277 22.923-51.2 51.2-51.2v0c28.277 0 51.2 22.923 51.2 51.2v0 272.896c0.001 0.088 0.001 0.192 0.001 0.296 0 14.065-5.671 26.806-14.852 36.059l0.003-0.003c-8.962 8.898-21.203 14.504-34.751 14.847l-0.065 0.001z"></path>
</svg>