<svg version="1.1" xmlns="http://www.w3.org/2000/svg" width="1024" height="1024" viewBox="0 0 1024 1024">
<path d="M870.4 71.68c45.243 0 81.92 36.677 81.92 81.92v0 716.8c0 45.243-36.677 81.92-81.92 81.92v0h-716.8c-45.243 0-81.92-36.677-81.92-81.92v0-716.8c0-45.243 36.677-81.92 81.92-81.92v0h716.8zM870.4 0h-716.8c-84.831 0-153.6 68.769-153.6 153.6v0 716.8c0 84.831 68.769 153.6 153.6 153.6v0h716.8c84.831 0 153.6-68.769 153.6-153.6v0-716.8c0-84.831-68.769-153.6-153.6-153.6v0z"></path>,<path d="M861.184 128h-251.392c-0.31-0.010-0.674-0.016-1.040-0.016-18.663 0-33.792 15.129-33.792 33.792 0 0.366 0.006 0.73 0.017 1.093l-0.001-0.053c-0.010 0.31-0.016 0.674-0.016 1.040 0 18.663 15.129 33.792 33.792 33.792 0.366 0 0.73-0.006 1.093-0.017l-0.053 0.001h164.352l-219.136 204.8c-6.47 6.039-10.56 14.556-10.751 24.029l-0.001 0.035c0.169 9.673 4.257 18.359 10.739 24.564l0.013 0.012c6.067 6.316 14.583 10.24 24.015 10.24 0.017 0 0.034 0 0.052 0h-0.003c0.145 0.002 0.315 0.004 0.486 0.004 9.296 0 17.674-3.933 23.561-10.225l0.017-0.018 223.232-210.432v161.792c0 19.228 15.588 34.816 34.816 34.816s34.816-15.588 34.816-34.816v-239.616c0.010-0.31 0.016-0.674 0.016-1.040 0-18.663-15.129-33.792-33.792-33.792-0.366 0-0.73 0.006-1.093 0.017l0.053-0.001z"></path>,<path d="M444.928 563.2c-0.145-0.002-0.315-0.004-0.486-0.004-9.296 0-17.674 3.933-23.561 10.225l-0.017 0.018-223.232 210.432v-162.304c0.010-0.31 0.016-0.674 0.016-1.040 0-18.663-15.129-33.792-33.792-33.792-0.366 0-0.73 0.006-1.093 0.017l0.053-0.001c-0.31-0.010-0.674-0.016-1.040-0.016-18.663 0-33.792 15.129-33.792 33.792 0 0.366 0.006 0.73 0.017 1.093l-0.001-0.053v239.616c-0.010 0.31-0.016 0.674-0.016 1.040 0 18.663 15.129 33.792 33.792 33.792 0.366 0 0.73-0.006 1.093-0.017l-0.053 0.001h251.392c0.31 0.010 0.674 0.016 1.040 0.016 18.663 0 33.792-15.129 33.792-33.792 0-0.366-0.006-0.73-0.017-1.093l0.001 0.053c0.025-0.479 0.039-1.039 0.039-1.603 0-18.097-14.671-32.768-32.768-32.768-0.734 0-1.463 0.024-2.185 0.072l0.098-0.005h-164.352l219.136-204.8c6.47-6.039 10.56-14.556 10.751-24.029l0.001-0.035c-0.169-9.673-4.257-18.359-10.739-24.564l-0.013-0.012c-6.138-6.234-14.636-10.131-24.043-10.24h-0.021z"></path>
</svg>