<svg version="1.1" xmlns="http://www.w3.org/2000/svg" width="1024" height="1024" viewBox="0 0 1024 1024">
<path d="M149.657 909.525c-0.038 0-0.083 0-0.128 0-9.568 0-18.222-3.917-24.444-10.236l-0.004-0.004c-6.908-6.382-11.22-15.488-11.22-25.6s4.311-19.218 11.196-25.579l0.023-0.021 233.472-229.888c-18.86-31.378-30.639-68.939-32.242-109.118l-0.014-0.45c0.712-102.952 84.336-186.136 187.388-186.136 37.449 0 72.332 10.985 101.603 29.909l-0.735-0.445 78.848-72.704c-50.231-23.678-109.107-37.499-171.21-37.499-3.529 0-7.049 0.045-10.557 0.133l0.519-0.010c-299.52 0-409.6 201.728-437.248 263.68 15.846 52.899 43.049 98.307 78.925 135.247l-0.077-0.079c6.027 6.325 9.736 14.906 9.736 24.354 0 0.258-0.003 0.516-0.008 0.773l0.001-0.038c-0.269 9.591-4.555 18.131-11.229 24.033l-0.035 0.031c-5.864 6.006-14.041 9.731-23.089 9.731-0.163 0-0.325-0.001-0.488-0.004h0.025c-0.194 0.004-0.423 0.006-0.653 0.006-9.821 0-18.679-4.127-24.932-10.742l-0.015-0.016c-43.884-45.924-78.842-100.801-101.817-161.563l-1.095-3.301c-0.968-3.142-1.526-6.754-1.526-10.496s0.558-7.354 1.594-10.757l-0.068 0.261c78.548-195.974 266.906-331.861 487.001-331.861 8.793 0 17.535 0.217 26.221 0.646l-1.222-0.048c3.601-0.078 7.846-0.123 12.101-0.123 82.080 0 160.281 16.607 231.426 46.645l-3.911-1.466 98.304-92.16c6.296-6.275 14.983-10.155 24.576-10.155 19.198 0 34.767 15.539 34.816 34.726v0.005c0.002 0.126 0.003 0.275 0.003 0.424 0 9.637-3.915 18.359-10.242 24.663l-227.329 227.329c17.649 30.812 28.518 67.52 29.688 106.664l0.008 0.344c-0.29 103.84-84.535 187.907-188.415 187.907-0.36 0-0.72-0.001-1.080-0.003h0.055c-0.381 0.003-0.832 0.004-1.283 0.004-37.632 0-72.63-11.278-101.798-30.637l0.681 0.425-80.896 78.336c49.138 22.519 106.6 35.647 167.127 35.647 5.686 0 11.346-0.116 16.976-0.345l-0.807 0.026c299.52 0 409.6-201.728 437.248-263.168-16.217-52.271-43.358-97.106-78.925-133.711l0.077 0.079c-7.204-6.232-11.734-15.387-11.734-25.6s4.531-19.368 11.692-25.564l0.043-0.036c6.058-5.975 14.368-9.68 23.543-9.728h0.009c10.119 0.012 19.224 4.339 25.578 11.24l0.022 0.024c44.191 46.001 79.071 101.312 101.375 162.661l1.025 3.227c2.064 4.458 3.267 9.675 3.267 15.173 0 3.343-0.445 6.582-1.279 9.661l0.060-0.258c0 3.072-108.032 329.728-512 329.728-1.716 0.017-3.742 0.027-5.771 0.027-84.205 0-164.407-17.139-237.307-48.12l3.974 1.501-98.816 92.16c-6.226 6.323-14.88 10.24-24.448 10.24-0.045 0-0.090 0-0.135 0h0.007zM465.561 608.469c11.79 11.108 27.722 17.934 45.248 17.934 0.473 0 0.944-0.005 1.415-0.015l-0.070 0.001c65.037 0 117.76-52.723 117.76-117.76v0c-0.176-16.867-3.737-32.856-10.034-47.384l0.306 0.792v-3.584l-5.632-1.024zM512.153 391.381c-64.197 0.863-115.941 52.966-116.224 117.221v0.027c-0.017 0.715-0.026 1.557-0.026 2.402 0 17.763 4.169 34.553 11.581 49.443l-0.291-0.645 156.16-149.504c-12.373-11.785-29.158-19.036-47.636-19.036-1.254 0-2.5 0.033-3.737 0.099l0.173-0.007z"></path>
</svg>