<svg version="1.1" xmlns="http://www.w3.org/2000/svg" width="1024" height="1024" viewBox="0 0 1024 1024">
<path d="M503.687 251.449c5.644-0.237 12.266-0.372 18.92-0.372 183.523 0 343.054 102.721 424.235 253.804l1.261 2.568c-88.552 157.847-253.897 263.323-444.080 265.725l-0.336 0.003c-186.397-1.14-347.58-107.954-426.769-263.505l-1.263-2.735c72.611-152.882 225.757-256.696 403.15-256.696 8.753 0 17.447 0.253 26.075 0.751l-1.193-0.055zM503.687 179.257c-7.594-0.399-16.487-0.627-25.432-0.627-212.402 0-394.835 128.311-474.017 311.649l-1.286 3.346c-1.944 4.375-3.076 9.479-3.076 14.848s1.132 10.473 3.17 15.087l-0.094-0.239c90.734 190.007 280.312 319.493 500.4 322.045l0.336 0.003c224.133-4.028 417.506-131.818 515.052-317.768l1.556-3.256c2.413-4.614 3.828-10.077 3.828-15.872s-1.416-11.258-3.92-16.065l0.091 0.193c-91.123-186.766-279.608-313.159-497.613-313.159-6.68 0-13.332 0.119-19.954 0.354l0.959-0.027z"></path>,<path d="M512.391 404.537c59.382 0 107.52 48.138 107.52 107.52s-48.138 107.52-107.52 107.52c-59.382 0-107.52-48.138-107.52-107.52v0c0-59.382 48.138-107.52 107.52-107.52v0zM512.391 333.369c-98.969 0-179.2 80.231-179.2 179.2s80.231 179.2 179.2 179.2c98.969 0 179.2-80.231 179.2-179.2v0c0-98.969-80.231-179.2-179.2-179.2v0z"></path>
</svg>