<svg version="1.1" xmlns="http://www.w3.org/2000/svg" width="1024" height="1024" viewBox="0 0 1024 1024">
<path d="M642.787 983.809c-36.822-0.29-66.56-30.207-66.56-67.070 0-0.001 0-0.001 0-0.002v0-204.8h-133.12v204.8c0 0.001 0 0.001 0 0.002 0 36.863-29.738 66.78-66.532 67.070h-201.244c-36.822-0.29-66.56-30.207-66.56-67.070 0-0.001 0-0.001 0-0.002v0-437.248l-43.008 35.84c-6.669 5.732-15.408 9.221-24.963 9.221-0.224 0-0.447-0.002-0.67-0.006h0.034c-0.113 0.001-0.247 0.002-0.381 0.002-21.773 0-39.424-17.651-39.424-39.424 0-12.385 5.711-23.436 14.643-30.664l0.074-0.058 482.816-404.992c6.8-5.733 15.66-9.217 25.333-9.217 0.094 0 0.187 0 0.281 0.001h-0.014c10.008 0.003 19.155 3.686 26.161 9.77l-0.049-0.042 460.8 404.992c8.142 7.341 13.238 17.925 13.238 29.7 0 21.85-17.548 39.602-39.319 39.931h-0.031c-10.008-0.003-19.155-3.686-26.161-9.77l0.049 0.042-41.984-36.864v438.784c0 0.001 0 0.001 0 0.002 0 36.863-29.738 66.78-66.532 67.070h-0.028zM588.515 633.601c0.001 0 0.001 0 0.002 0 36.863 0 66.78 29.738 67.070 66.532v204.828h182.272v-494.592l-314.88-278.016-333.312 279.040v493.056h174.080v-204.8c0-36.76 29.8-66.56 66.56-66.56v0z"></path>
</svg>