<svg version="1.1" xmlns="http://www.w3.org/2000/svg" width="1024" height="1024" viewBox="0 0 1024 1024">
<path d="M102.43 1024c-0.152 0.001-0.333 0.001-0.513 0.001-52.948 0-96.51-40.186-101.85-91.722l-0.037-0.439v-822.272c1.075-52.084 40.877-94.545 91.721-99.803l0.439-0.037h444.928c20.126 0.231 36.517 15.909 37.881 35.721l0.007 0.119c0.031 0.581 0.049 1.26 0.049 1.944 0 19.238-14.147 35.172-32.605 37.966l-0.212 0.026h-439.808c-10.15 0.109-18.815 6.354-22.468 15.197l-0.060 0.163v820.736c0.109 10.15 6.354 18.815 15.197 22.468l0.163 0.060h819.2c10.040-0.017 18.667-6.052 22.466-14.69l0.062-0.158v-436.224c0-0.016 0-0.036 0-0.055 0-20.205 15.815-36.715 35.741-37.828l0.099-0.004c0.426-0.017 0.927-0.026 1.43-0.026 19.513 0 35.671 14.362 38.48 33.092l0.026 0.214v433.152c0.001 0.185 0.002 0.403 0.002 0.621 0 52.586-39.639 95.914-90.667 101.735l-0.471 0.044h-819.2z"></path>,<path d="M985.63-0c0.027 0 0.059 0 0.090 0 10.157 0 19.355 4.108 26.023 10.753l-0.001-0.001 6.144 5.632c3.814 5.763 6.084 12.836 6.084 20.44 0 10.698-4.495 20.346-11.699 27.16l-0.018 0.016-440.832 437.248h176.128c20.925 0 37.888 16.963 37.888 37.888s-16.963 37.888-37.888 37.888h-263.168c-0.796 0.064-1.724 0.1-2.66 0.1-19.511 0-35.328-15.817-35.328-35.328 0-0.936 0.036-1.864 0.108-2.782l-0.008 0.122v-262.656c-0.064-0.796-0.1-1.724-0.1-2.66 0-19.511 15.817-35.328 35.328-35.328 0.936 0 1.864 0.036 2.782 0.108l-0.122-0.008c0.966-0.095 2.087-0.149 3.221-0.149 19.228 0 34.816 15.588 34.816 34.816 0 1.134-0.054 2.256-0.16 3.362l0.011-0.141v173.056l437.248-438.272c6.62-6.853 15.853-11.145 26.090-11.264h0.022z"></path>
</svg>