<svg version="1.1" xmlns="http://www.w3.org/2000/svg" width="1024" height="1024" viewBox="0 0 1024 1024">
<path d="M699.991 40.895c-58.773-25.534-127.229-40.406-199.153-40.448h-0.015c-0.21 0-0.459 0-0.708 0-171.389 0-323.109 84.211-416.040 213.514l-1.043 1.527c-4.277 6.159-6.833 13.793-6.833 22.025 0 21.193 16.942 38.429 38.021 38.902l0.044 0.001h6.656c10.48-1.688 19.345-7.528 25.006-15.746l0.082-0.126c79.774-111.198 208.656-182.784 354.257-182.784 0.196 0 0.393 0 0.589 0h-0.030c240.354 0 435.2 194.846 435.2 435.2s-194.846 435.2-435.2 435.2v0c-71.225-0.232-138.336-17.619-197.487-48.241l2.415 1.137c-60.967-30.831-111.933-73.121-151.83-124.443l-0.746-0.997c-6.793-9.056-17.506-14.853-29.572-14.853-0.224 0-0.447 0.002-0.67 0.006h0.034c-7.964 0.455-15.192 3.27-21.087 7.749l0.095-0.069c-7.924 6.131-13.381 15.119-14.824 25.394l-0.024 0.206c-0.201 1.466-0.316 3.16-0.316 4.88 0 8.814 3.010 16.926 8.058 23.362l-0.062-0.082c46.795 61.188 105.643 110.706 173.264 145.6l2.864 1.344c66.887 34.298 145.928 54.399 229.664 54.399 246.2 0 451.814-173.773 500.878-405.358l0.593-3.345c6.584-30.798 10.354-66.182 10.354-102.447 0-210.693-127.264-391.661-309.114-470.229l-3.32-1.277z"></path>,<path d="M328.279 655.807l165.376-146.432-167.424-142.336v107.008h-288.256c-21.208 0-38.4 17.192-38.4 38.4s17.192 38.4 38.4 38.4v0h288.768z"></path>
</svg>