<svg version="1.1" xmlns="http://www.w3.org/2000/svg" width="1024" height="1024" viewBox="0 0 1024 1024">
<path d="M512 0c-282.77 0-512 229.23-512 512s229.23 512 512 512c282.77 0 512-229.23 512-512v0c0-282.77-229.23-512-512-512v0zM512 952.32c-243.182 0-440.32-197.138-440.32-440.32s197.138-440.32 440.32-440.32c243.182 0 440.32 197.138 440.32 440.32v-0c-0.291 243.065-197.255 440.029-440.292 440.32l-0.028 0z"></path>,<path d="M731.648 474.112h-439.296c-18.947 2.278-33.491 18.256-33.491 37.632s14.544 35.354 33.31 37.614l0.181 0.018h439.296c18.947-2.278 33.491-18.256 33.491-37.632s-14.544-35.354-33.31-37.614l-0.181-0.018z"></path>
</svg>