<svg version="1.1" xmlns="http://www.w3.org/2000/svg" width="1024" height="1024" viewBox="0 0 1024 1024">
<path d="M512 1024c-282.77 0-512-229.23-512-512s229.23-512 512-512c282.77 0 512 229.23 512 512v0c0 282.77-229.23 512-512 512v0zM512 947.2c240.354 0 435.2-194.846 435.2-435.2s-194.846-435.2-435.2-435.2c-240.354 0-435.2 194.846-435.2 435.2v0c0.291 240.237 194.963 434.909 435.172 435.2h0.028zM473.6 486.4v-153.6c-0.002-0.139-0.003-0.302-0.003-0.466 0-13.951 7.54-26.141 18.768-32.717l0.179-0.097c5.615-3.139 12.32-4.987 19.456-4.987s13.841 1.848 19.662 5.092l-0.206-0.105c11.406 6.673 18.947 18.862 18.947 32.814 0 0.164-0.001 0.328-0.003 0.491v-0.025 153.6h153.6c0.142-0.002 0.31-0.003 0.478-0.003 14.072 0 26.328 7.777 32.704 19.268l0.097 0.191c3.144 5.446 4.998 11.978 4.998 18.944s-1.855 13.498-5.097 19.13l0.099-0.186c-6.473 11.682-18.729 19.459-32.802 19.459-0.168 0-0.336-0.001-0.504-0.003h-153.575v153.6c0 21.208-17.192 38.4-38.4 38.4s-38.4-17.192-38.4-38.4v0-153.6h-153.6c-21.208 0-38.4-17.192-38.4-38.4s17.192-38.4 38.4-38.4v0z"></path>
</svg>