<svg version="1.1" xmlns="http://www.w3.org/2000/svg" width="1024" height="1024" viewBox="0 0 1024 1024">
<path d="M512 1024c-282.77 0-512-229.23-512-512s229.23-512 512-512c282.77 0 512 229.23 512 512v0c0 282.77-229.23 512-512 512v0zM460.8 460.8h-153.6c-28.277 0-51.2 22.923-51.2 51.2s22.923 51.2 51.2 51.2v0h153.6v153.6c0 28.277 22.923 51.2 51.2 51.2s51.2-22.923 51.2-51.2v0-153.6h153.6c28.277 0 51.2-22.923 51.2-51.2s-22.923-51.2-51.2-51.2v0h-153.6v-153.6c0-28.277-22.923-51.2-51.2-51.2s-51.2 22.923-51.2 51.2v0z"></path>
</svg>