<svg version="1.1" xmlns="http://www.w3.org/2000/svg" width="1024" height="1024" viewBox="0 0 1024 1024">
<path d="M512 0c-282.77 0-512 229.23-512 512s229.23 512 512 512c282.77 0 512-229.23 512-512v0c0-282.77-229.23-512-512-512v0zM553.984 762.368c0 12.159-9.857 22.016-22.016 22.016v0h-65.024c-12.159 0-22.016-9.857-22.016-22.016v0-65.024c0-0.002 0-0.004 0-0.006 0-11.876 9.628-21.504 21.504-21.504 0.18 0 0.36 0.002 0.539 0.007l-0.027-0.001h65.024c0.152-0.004 0.332-0.006 0.512-0.006 11.876 0 21.504 9.628 21.504 21.504 0 0.002 0 0.004 0 0.006v0zM661.504 463.36c-15.278 17.681-32.058 33.324-50.374 47.025l-0.826 0.591-27.648 18.944c-13.083 9.014-23.283 21.353-29.49 35.812l-0.206 0.54c-1.733 6.232-2.839 13.431-3.069 20.851l-0.003 0.141c-0.981 6.703-6.484 11.855-13.27 12.286l-0.042 0.002h-72.704c-0.321 0.030-0.694 0.047-1.071 0.047-6.786 0-12.288-5.502-12.288-12.288 0-0.377 0.017-0.75 0.050-1.118l-0.003 0.047c-0.19-2.514-0.299-5.444-0.299-8.4 0-22.001 6.007-42.599 16.471-60.243l-0.3 0.547c22.975-23.386 48.469-44.162 76.084-61.928l1.74-1.048c7.816-5.705 14.432-12.483 19.786-20.202l0.182-0.278c9.53-11.208 15.721-25.522 16.882-41.234l0.014-0.238c0.001-0.159 0.002-0.346 0.002-0.534 0-17.873-5.76-34.4-15.524-47.828l0.162 0.234c-11.96-13.353-29.255-21.717-48.504-21.717-1.85 0-3.682 0.077-5.493 0.229l0.237-0.016c-1.725-0.171-3.729-0.268-5.755-0.268-21.112 0-39.758 10.56-50.942 26.687l-0.134 0.205c-7.333 10.952-12.702 23.869-15.264 37.77l-0.096 0.63c0 4.608-3.584 14.336-13.824 14.336h-71.68c-14.336 0-17.92-9.728-17.408-14.336 1.639-51.148 28.040-95.798 67.554-122.534l0.542-0.346c26.845-16.515 59.366-26.298 94.172-26.298 2.894 0 5.772 0.068 8.633 0.201l-0.405-0.015c2.489-0.103 5.41-0.161 8.344-0.161 45.455 0 87.631 14.036 122.431 38.011l-0.727-0.474c31.371 23.694 51.435 60.92 51.435 102.832 0 2.73-0.085 5.44-0.253 8.128l0.018-0.368c-0.752 28.771-10.847 55.047-27.346 76.054l0.21-0.278z"></path>
</svg>