<svg version="1.1" xmlns="http://www.w3.org/2000/svg" width="1024" height="1024" viewBox="0 0 1024 1024">
<path d="M634.737 242.417h-207.872v-131.072c0.003-0.143 0.005-0.312 0.005-0.481 0-12.159-9.857-22.016-22.016-22.016-3.747 0-7.275 0.936-10.363 2.587l0.118-0.058-382.464 190.976c-7.205 3.989-12.002 11.546-12.002 20.224s4.797 16.235 11.884 20.164l0.118 0.060 382.464 190.976c2.97 1.593 6.498 2.529 10.245 2.529 12.159 0 22.016-9.857 22.016-22.016 0-0.169-0.002-0.338-0.006-0.506v0.025-132.096h224.768q266.24 0 266.752 223.744t-275.456 230.912h-464.896c-32.58 0.29-58.88 26.769-58.88 59.39 0 0.001 0 0.002 0 0.002v0c0 0.001 0 0.001 0 0.002 0 32.621 26.3 59.1 58.853 59.39h470.043q375.808 0 375.808-338.432 0-354.304-389.12-354.304z"></path>
</svg>