<svg version="1.1" xmlns="http://www.w3.org/2000/svg" width="1024" height="1024" viewBox="0 0 1024 1024">
<path d="M219.648 73.216h-110.080c-20.077 0-36.352 16.275-36.352 36.352v0 804.864c0 20.077 16.275 36.352 36.352 36.352v0h804.864c20.077 0 36.352-16.275 36.352-36.352v0-804.864c0-20.077-16.275-36.352-36.352-36.352v0h-110.080v365.568c0 0.001 0 0.001 0 0.002 0 40.256-32.489 72.924-72.676 73.214h-439.324c-40.215-0.29-72.704-32.958-72.704-73.214 0-0.001 0-0.001 0-0.002v0zM73.216 0h877.568c40.436 0 73.216 32.78 73.216 73.216v0 877.568c0 40.436-32.78 73.216-73.216 73.216v0h-877.568c-40.436 0-73.216-32.78-73.216-73.216v0-877.568c0-40.436 32.78-73.216 73.216-73.216v0zM292.352 73.216v329.216c0 0.001 0 0.002 0 0.004 0 20.077 16.275 36.352 36.352 36.352 0.18 0 0.36-0.001 0.539-0.004h365.541c0.152 0.002 0.332 0.004 0.512 0.004 20.077 0 36.352-16.275 36.352-36.352 0-0.001 0-0.003 0-0.004v0-329.216zM621.568 146.432c0.152-0.002 0.332-0.004 0.512-0.004 20.077 0 36.352 16.275 36.352 36.352 0 0.001 0 0.003 0 0.004v0 146.432c-2.244 18.407-17.777 32.527-36.608 32.527s-34.364-14.12-36.59-32.349l-0.018-0.178v-146.432c0-20.077 16.275-36.352 36.352-36.352v0z"></path>
</svg>