<svg version="1.1" xmlns="http://www.w3.org/2000/svg" width="1024" height="1024" viewBox="0 0 1024 1024">
<path d="M757.418 454.324c0.021-1.378 0.033-3.004 0.033-4.634 0-175.425-140.92-317.936-315.733-320.508l-0.242-0.003h-2.556c-173.995 4.273-313.413 146.337-313.413 320.963 0 1.47 0.010 2.938 0.030 4.403l-0.002-0.222c-0.017 1.243-0.027 2.711-0.027 4.181 0 174.627 139.418 316.69 313.017 320.956l0.396 0.008c176.154-1.154 318.508-144.221 318.508-320.537 0-0.901-0.004-1.801-0.011-2.701l0.001 0.138zM915.9 1005.433l-192.735-199.892c-75.018 63.598-172.92 102.269-279.854 102.269-1.544 0-3.086-0.008-4.626-0.024l0.234 0.002c-243.641-5.143-439.18-203.865-439.18-448.258 0-1.83 0.011-3.658 0.033-5.484l-0.003 0.277c-0.028-1.849-0.043-4.032-0.043-6.218 0-244.294 195.605-442.903 438.739-447.75l0.453-0.007c243.531 4.567 439.2 203.061 439.2 447.255 0 2.363-0.018 4.722-0.055 7.076l0.004-0.356c0.031 1.988 0.049 4.334 0.049 6.685 0 92.478-27.283 178.584-74.239 250.708l1.084-1.776 6.646 4.601 192.735 198.358c11.117 12.066 17.932 28.242 17.932 46.011s-6.816 33.945-17.975 46.058l0.043-0.047c-11.488 11.569-27.402 18.731-44.989 18.731s-33.501-7.161-44.985-18.727l-0.004-0.004z"></path>
</svg>