<svg version="1.1" xmlns="http://www.w3.org/2000/svg" width="1024" height="1024" viewBox="0 0 1024 1024">
<path d="M665.6 990.144c-0.116 0.001-0.254 0.001-0.391 0.001-18.934 0-36.035-7.845-48.231-20.462l-0.018-0.019c-26.664-30.834-62.729-52.892-103.711-61.726l-1.249-0.226c-42.848 8.532-79.621 30.279-106.844 60.741l-0.164 0.187c-12.008 12.304-28.755 19.935-47.286 19.935-9.174 0-17.911-1.87-25.85-5.25l0.432 0.163-127.488-70.144c-15.178-10.901-24.949-28.502-24.949-48.384 0-8.613 1.833-16.797 5.131-24.185l-0.15 0.377c6.341-15.073 10.399-32.547 11.251-50.859l0.013-0.341c-0.289-72.736-59.319-131.588-132.095-131.588-0.36 0-0.72 0.001-1.080 0.004h-5.065c-20.992 0-37.888-18.432-43.52-47.104-6.9-28.62-12.001-62.42-14.242-96.999l-0.094-1.817c1.055-35.841 4.921-70.044 11.398-103.313l-0.646 3.985c5.632-28.672 23.040-47.104 44.544-46.592h4.096c0.153 0.001 0.335 0.001 0.516 0.001 72.878 0 132.025-58.789 132.604-131.53v-0.055c-0.951-18.666-5.002-36.129-11.647-52.248l0.383 1.048c-3.043-6.873-4.814-14.889-4.814-23.318 0-19.952 9.924-37.587 25.106-48.236l0.189-0.125 133.632-72.704c7.843-3.48 16.993-5.507 26.616-5.507 18.62 0 35.467 7.587 47.62 19.839l0.004 0.004c27.187 29.558 63.418 50.416 104.287 58.181l1.185 0.187c41.613-7.693 77.504-28.205 104.334-57.219l0.114-0.125c12.055-11.68 28.511-18.879 46.648-18.879 9.214 0 17.994 1.858 25.985 5.219l-0.441-0.165 127.488 70.656c15.144 10.798 24.902 28.303 24.902 48.087 0 8.535-1.816 16.646-5.083 23.967l0.149-0.374c-6.262 15.071-10.313 32.534-11.248 50.82l-0.016 0.38c0.58 72.796 59.726 131.585 132.604 131.585 0.181 0 0.363 0 0.544-0.001h4.068c21.504 0 38.912 17.92 44.544 46.592 6.875 28.887 11.976 63.043 14.239 97.972l0.097 1.868c-0.971 35.772-4.841 69.98-11.392 103.225l0.64-3.897c-5.632 28.672-23.040 47.616-44.544 47.104h-4.096c-0.305-0.003-0.665-0.004-1.025-0.004-72.776 0-131.806 58.852-132.095 131.56v0.028c0.761 18.639 4.83 36.127 11.632 52.177l-0.368-0.977c3.147 7.010 4.981 15.195 4.981 23.808 0 19.883-9.77 37.483-24.771 48.263l-0.177 0.121-131.584 70.656c-6.888 3.235-14.958 5.123-23.47 5.123-0.209 0-0.418-0.001-0.626-0.003h0.032zM658.944 921.024h4.096l119.808-65.536c-10.073-21.986-15.946-47.695-15.946-74.777 0-100.178 80.365-181.585 180.141-183.269l0.158-0.002c4.696-24.773 7.998-54.020 9.179-83.812l0.037-1.18c-0.95-30.707-4.262-59.97-9.773-88.448l0.557 3.456c-99.98-5.314-179.056-87.607-179.2-188.402v-0.014c0.761-26.286 6.717-50.993 16.871-73.392l-0.487 1.2-118.784-62.976h-4.608c-13.039 13.186-27.267 25.139-42.53 35.704l-0.99 0.648c-28.19 21.729-63.524 35.486-101.978 37.36l-0.422 0.016c-38.976-2.277-74.273-16.366-102.802-38.703l0.402 0.303c-16.241-11.344-30.471-23.462-43.457-36.799l-0.063-0.065h-4.608l-123.392 66.048c8.912 20.837 14.32 45.045 14.845 70.453l0.003 0.203c-0.129 100.64-78.928 182.835-178.195 188.394l-0.493 0.022c-5.179 24.998-8.672 54.232-9.703 84.091l-0.025 0.901c1.016 30.726 4.51 59.962 10.302 88.363l-0.574-3.371c99.407 5.559 177.999 87.187 178.688 187.324v0.068c-0.846 26.293-6.793 50.987-16.877 73.419l0.493-1.227 118.784 63.488h4.096c13.158-14.122 27.57-26.747 43.165-37.815l0.867-0.585c27.952-22.664 63.249-37.291 101.841-39.906l0.559-0.030c40.354 2.356 76.79 17.423 105.794 41.216l-0.322-0.256c16.3 12.105 30.689 24.871 43.897 38.769l0.135 0.143zM512 682.944c-93.942-0.291-169.984-76.513-169.984-170.495 0-94.162 76.334-170.496 170.496-170.496s170.496 76.333 170.496 170.495v0c-0.291 94.225-76.742 170.496-171.007 170.496 0 0 0 0-0.001 0v0zM512 410.048c-56.554 0-102.4 45.846-102.4 102.4s45.846 102.4 102.4 102.4v0c56.554 0 102.4-45.846 102.4-102.4s-45.846-102.4-102.4-102.4v0z"></path>
</svg>