<svg version="1.1" xmlns="http://www.w3.org/2000/svg" width="1024" height="1024" viewBox="0 0 1024 1024">
<path d="M979.2 782.722c-0.22 0.004-0.48 0.006-0.741 0.006-12.047 0-22.951-4.895-30.831-12.805l-0.001-0.001-435.2-420.693-435.2 420.693c-8.186 8.196-19.501 13.267-32 13.267s-23.814-5.070-32-13.266v0c-8.196-8.186-13.267-19.501-13.267-32s5.070-23.814 13.266-32v0l467.627-452.267c8.142-7.944 19.285-12.845 31.573-12.845s23.431 4.901 31.583 12.854l-0.009-0.009 466.773 451.413c8.196 8.186 13.267 19.501 13.267 32s-5.070 23.814-13.266 32v0c-7.935 8.396-19.141 13.63-31.569 13.653h-0.004z"></path>
</svg>